<svg xmlns="http://www.w3.org/2000/svg" xmlns:xlink="http://www.w3.org/1999/xlink" xmlns:s="https://github.com/nturley/netlistsvg" width="331" height="124.5">
  <style>svg {
    stroke:#000;
    fill:none;
  }
  text {
    fill:#000;
    stroke:none;
    font-size:10px;
    font-weight: bold;
    font-family: "Courier New", monospace;
  }
  .nodelabel {
    text-anchor: middle;
  }
  .inputPortLabel {
    text-anchor: end;
  }
  .splitjoinBody {
    fill:#000;
  }
  .noninv {
    fill:#EEF;
  }</style>
  <g s:type="INV" transform="translate(99,12)" s:width="30" s:height="20" id="cell_$abc$57$auto$blifparse.cc:371:parse_blif$58">
    <s:alias val="INV"/>
    <s:alias val="INV_X1"/>
    <s:alias val="INV_X2"/>
    <s:alias val="INV_X4"/>
    <s:alias val="INV_X8"/>
    <s:alias val="INV_X16"/>
    <s:alias val="INV_X32"/>
    <path d="M0,0 L0,20 L20,10 Z"/>
    <circle cx="23" cy="10" r="3"/>
    <g s:x="0" s:y="10" s:pid="A"/>
    <g s:x="25" s:y="10" s:pid="ZN"/>
  </g>
  <g s:type="INV" transform="translate(152,33)" s:width="30" s:height="20" id="cell_$abc$57$auto$blifparse.cc:371:parse_blif$59">
    <s:alias val="INV"/>
    <s:alias val="INV_X1"/>
    <s:alias val="INV_X2"/>
    <s:alias val="INV_X4"/>
    <s:alias val="INV_X8"/>
    <s:alias val="INV_X16"/>
    <s:alias val="INV_X32"/>
    <path d="M0,0 L0,20 L20,10 Z"/>
    <circle cx="23" cy="10" r="3"/>
    <g s:x="0" s:y="10" s:pid="A"/>
    <g s:x="25" s:y="10" s:pid="ZN"/>
  </g>
  <g s:type="NAND2" transform="translate(205,23)" s:width="30" s:height="25" id="cell_$abc$57$auto$blifparse.cc:371:parse_blif$60">
    <s:alias val="NAND2"/>
    <s:alias val="NAND2_X1"/>
    <s:alias val="NAND2_X2"/>
    <s:alias val="NAND2_X4"/>
    <path d="M0,0 L0,25 L15,25 A15 12.5 0 0 0 15,0 Z"/>
    <circle cx="34" cy="12.5" r="3"/>
    <g s:x="0" s:y="5" s:pid="A1"/>
    <g s:x="0" s:y="20" s:pid="A2"/>
    <g s:x="36" s:y="12.5" s:pid="ZN"/>
  </g>
  <g s:type="NAND2" transform="translate(149,63)" s:width="30" s:height="25" id="cell_$abc$57$auto$blifparse.cc:371:parse_blif$61">
    <s:alias val="NAND2"/>
    <s:alias val="NAND2_X1"/>
    <s:alias val="NAND2_X2"/>
    <s:alias val="NAND2_X4"/>
    <path d="M0,0 L0,25 L15,25 A15 12.5 0 0 0 15,0 Z"/>
    <circle cx="34" cy="12.5" r="3"/>
    <g s:x="0" s:y="5" s:pid="A1"/>
    <g s:x="0" s:y="20" s:pid="A2"/>
    <g s:x="36" s:y="12.5" s:pid="ZN"/>
  </g>
  <g s:type="NAND2" transform="translate(205,70.5)" s:width="30" s:height="25" id="cell_$abc$57$auto$blifparse.cc:371:parse_blif$62">
    <s:alias val="NAND2"/>
    <s:alias val="NAND2_X1"/>
    <s:alias val="NAND2_X2"/>
    <s:alias val="NAND2_X4"/>
    <path d="M0,0 L0,25 L15,25 A15 12.5 0 0 0 15,0 Z"/>
    <circle cx="34" cy="12.5" r="3"/>
    <g s:x="0" s:y="5" s:pid="A1"/>
    <g s:x="0" s:y="20" s:pid="A2"/>
    <g s:x="36" s:y="12.5" s:pid="ZN"/>
  </g>
  <g s:type="inputExt" transform="translate(12,43)" s:width="30" s:height="20" id="cell_a">
    <text x="15" y="-4" class="nodelabel" s:attribute="ref">a</text>
    <s:alias val="$_inputExt_"/>
    <path d="M0,0 L0,20 L15,20 L30,10 L15,0 Z"/>
    <g s:x="28" s:y="10" s:pid="Y"/>
  </g>
  <g s:type="outputExt" transform="translate(289,83)" s:width="30" s:height="20" id="cell_out">
    <text x="15" y="-4" class="nodelabel" s:attribute="ref">out</text>
    <s:alias val="$_outputExt_"/>
    <path d="M30,0 L30,20 L15,20 L0,10 L15,0 Z"/>
    <g s:x="0" s:y="10" s:pid="A"/>
  </g>
  <g s:type="join" transform="translate(268,72.5)" s:width="4" s:height="40" id="cell_$join$,8,9,">
    <rect width="5" height="40" class="splitjoinBody" s:generic="body"/>
    <s:alias val="$_join_"/>
    <g s:x="5" s:y="20" s:pid="out"/>
    <g transform="translate(0,10)" s:x="0" s:y="10" s:pid="in0">
      <text x="-3" y="-4" class="inputPortLabel">0</text>
    </g>
    <g transform="translate(0,30)" s:x="0" s:y="10" s:pid="in0">
      <text x="-3" y="-4" class="inputPortLabel">1</text>
    </g>
  </g>
  <g s:type="split" transform="translate(57,32.5)" s:width="5" s:height="40" id="cell_$split$,4,5,6,7,">
    <rect width="5" height="60" class="splitjoinBody" s:generic="body"/>
    <s:alias val="$_split_"/>
    <g s:x="0" s:y="20" s:pid="in"/>
    <g transform="translate(4,10)" s:x="4" s:y="10" s:pid="out0">
      <text x="5" y="-4">2</text>
    </g>
    <g transform="translate(4,30)" s:x="4" s:y="10" s:pid="out0">
      <text x="5" y="-4">3</text>
    </g>
    <g transform="translate(4,50)" s:x="4" s:y="10" s:pid="out0">
      <text x="5" y="-4">1</text>
    </g>
  </g>
  <line x1="62" x2="79" y1="43" y2="43" class="net_6"/>
  <line x1="79" x2="79" y1="43" y2="22" class="net_6"/>
  <line x1="79" x2="99" y1="22" y2="22" class="net_6"/>
  <line x1="62" x2="89" y1="63" y2="63" class="net_7"/>
  <line x1="89" x2="89" y1="63" y2="43" class="net_7"/>
  <line x1="89" x2="152" y1="43" y2="43" class="net_7"/>
  <line x1="124" x2="195" y1="22" y2="22" class="net_10"/>
  <line x1="195" x2="195" y1="22" y2="28" class="net_10"/>
  <line x1="195" x2="205" y1="28" y2="28" class="net_10"/>
  <line x1="124" x2="139" y1="22" y2="22" class="net_10"/>
  <line x1="139" x2="139" y1="22" y2="68" class="net_10"/>
  <circle cx="139" cy="22" r="2" style="fill:#000" class="net_10"/>
  <line x1="139" x2="149" y1="68" y2="68" class="net_10"/>
  <line x1="177" x2="205" y1="43" y2="43" class="net_11"/>
  <line x1="177" x2="195" y1="43" y2="43" class="net_11"/>
  <line x1="195" x2="195" y1="43" y2="90.5" class="net_11"/>
  <circle cx="195" cy="43" r="2" style="fill:#000" class="net_11"/>
  <line x1="195" x2="205" y1="90.5" y2="90.5" class="net_11"/>
  <line x1="62" x2="149" y1="83" y2="83" class="net_5"/>
  <line x1="185" x2="205" y1="75.5" y2="75.5" class="net_12"/>
  <line x1="274" x2="289" y1="93" y2="93" class="net_8,9"/>
  <line x1="241" x2="268" y1="83" y2="83" class="net_8"/>
  <line x1="241" x2="251" y1="35.5" y2="35.5" class="net_9"/>
  <line x1="251" x2="251" y1="35.5" y2="103" class="net_9"/>
  <line x1="251" x2="268" y1="103" y2="103" class="net_9"/>
  <line x1="40" x2="57" y1="53" y2="53" class="net_4,5,6,7"/>
</svg>
